<svg width="43" height="43" viewBox="0 0 43 43" fill="none" xmlns="http://www.w3.org/2000/svg">
<path fill-rule="evenodd" clip-rule="evenodd" d="M14.3333 8.0625C15.8897 8.06254 17.4128 8.51305 18.7188 9.35966C20.0248 10.2063 21.0578 11.4128 21.6932 12.8336C22.3286 14.2544 22.5392 15.8287 22.2995 17.3665C22.0598 18.9043 21.3802 20.3399 20.3426 21.5C21.3802 22.6601 22.0598 24.0957 22.2995 25.6335C22.5392 27.1713 22.3286 28.7456 21.6932 30.1664C21.0578 31.5872 20.0248 32.7937 18.7188 33.6403C17.4128 34.4869 15.8897 34.9375 14.3333 34.9375H7.16667C5.97872 34.9375 4.83942 34.4656 3.99942 33.6256C3.15941 32.7856 2.6875 31.6463 2.6875 30.4583V12.5417C2.6875 11.3537 3.15941 10.2144 3.99942 9.37442C4.83942 8.53441 5.97872 8.0625 7.16667 8.0625H14.3333ZM31.3542 15.2292C36.627 15.2292 40.3125 19.9896 40.3125 25.0833C40.3125 25.7514 40.0636 26.3955 39.6144 26.8901C39.1653 27.3846 38.548 27.6942 37.883 27.7583L37.625 27.7708H36.7363C37.2756 27.7719 37.8021 27.9352 38.2474 28.2395C38.6926 28.5437 39.0361 28.9749 39.233 29.477C39.4299 29.9791 39.4712 30.5288 39.3516 31.0546C39.2319 31.5805 38.9568 32.0582 38.562 32.4256C36.9567 33.918 34.6455 34.9375 31.3542 34.9375C26.0813 34.9375 22.3958 30.177 22.3958 25.0833C22.3958 19.9896 26.0813 15.2292 31.3542 15.2292ZM14.3333 24.1875H8.0625V29.5625H14.3333C15.0235 29.5622 15.6871 29.2963 16.1866 28.82C16.6861 28.3437 16.9832 27.6935 17.0164 27.0042C17.0496 26.3148 16.8162 25.6391 16.3648 25.117C15.9133 24.595 15.2783 24.2666 14.5913 24.2L14.3333 24.1875ZM36.722 27.7708H28.4875C29.1988 28.9265 30.3293 29.5625 31.3542 29.5625C33.4379 29.5625 34.3964 28.9587 34.8963 28.4911C35.3918 28.0298 36.045 27.7726 36.722 27.7708ZM31.3524 20.6042C30.3275 20.6042 29.197 21.2402 28.4857 22.3958H34.219C33.5078 21.2402 32.3772 20.6042 31.3524 20.6042ZM14.3333 13.4375H8.0625V18.8125H14.3333C15.0461 18.8125 15.7297 18.5294 16.2337 18.0253C16.7377 17.5213 17.0208 16.8378 17.0208 16.125C17.0208 15.4122 16.7377 14.7287 16.2337 14.2246C15.7297 13.7206 15.0461 13.4375 14.3333 13.4375ZM34.0417 9.85417C34.7544 9.85417 35.438 10.1373 35.942 10.6413C36.446 11.1453 36.7292 11.8289 36.7292 12.5417C36.7292 13.2544 36.446 13.938 35.942 14.442C35.438 14.946 34.7544 15.2292 34.0417 15.2292H28.6667C27.9539 15.2292 27.2703 14.946 26.7663 14.442C26.2623 13.938 25.9792 13.2544 25.9792 12.5417C25.9792 11.8289 26.2623 11.1453 26.7663 10.6413C27.2703 10.1373 27.9539 9.85417 28.6667 9.85417H34.0417Z" fill="#DAFFD6"/>
</svg>
