<svg width="43" height="43" viewBox="0 0 43 43" fill="none" xmlns="http://www.w3.org/2000/svg">
<path d="M33.5937 32.6978V14.7812H15.677V13.6614C15.677 11.8088 17.1838 10.302 19.0364 10.302H22.3958V3.58325H19.0364C16.3643 3.58562 13.8022 4.64819 11.9127 6.53769C10.0232 8.42719 8.96066 10.9892 8.95829 13.6614V14.7812H4.47913V21.4999H8.95829V32.6978H4.47913V39.4166H20.1562V32.6978H15.677V21.4999H26.9377V32.6978H22.3958V39.4166H38.0729V32.6978H33.5937Z" fill="#DAFFD6"/>
<path d="M30.2344 10.302C32.0897 10.302 33.5938 8.79796 33.5938 6.94263C33.5938 5.0873 32.0897 3.58325 30.2344 3.58325C28.379 3.58325 26.875 5.0873 26.875 6.94263C26.875 8.79796 28.379 10.302 30.2344 10.302Z" fill="#DAFFD6"/>
</svg>
