<svg width="44" height="44" viewBox="0 0 44 44" fill="none" xmlns="http://www.w3.org/2000/svg">
<path d="M22 3.66675C19.5924 3.66675 17.2084 4.14095 14.9841 5.06229C12.7598 5.98363 10.7387 7.33405 9.03633 9.03646C5.59817 12.4746 3.66663 17.1378 3.66663 22.0001C3.66663 30.1034 8.92829 36.9784 16.2066 39.4167C17.1233 39.5634 17.4166 38.9951 17.4166 38.5001V35.4017C12.3383 36.5017 11.2566 32.9451 11.2566 32.9451C10.4133 30.8184 9.22163 30.2501 9.22163 30.2501C7.55329 29.1134 9.34996 29.1501 9.34996 29.1501C11.1833 29.2784 12.155 31.0384 12.155 31.0384C13.75 33.8251 16.445 33.0001 17.49 32.5601C17.655 31.3684 18.1316 30.5617 18.645 30.1034C14.575 29.6451 10.3033 28.0684 10.3033 21.0834C10.3033 19.0484 11 17.4167 12.1916 16.1151C12.0083 15.6567 11.3666 13.7501 12.375 11.2751C12.375 11.2751 13.915 10.7801 17.4166 13.1451C18.865 12.7417 20.4416 12.5401 22 12.5401C23.5583 12.5401 25.135 12.7417 26.5833 13.1451C30.085 10.7801 31.625 11.2751 31.625 11.2751C32.6333 13.7501 31.9916 15.6567 31.8083 16.1151C33 17.4167 33.6966 19.0484 33.6966 21.0834C33.6966 28.0867 29.4066 29.6267 25.3183 30.0851C25.9783 30.6534 26.5833 31.7717 26.5833 33.4767V38.5001C26.5833 38.9951 26.8766 39.5817 27.8116 39.4167C35.09 36.9601 40.3333 30.1034 40.3333 22.0001C40.3333 19.5925 39.8591 17.2085 38.9378 14.9842C38.0164 12.7599 36.666 10.7389 34.9636 9.03646C33.2612 7.33405 31.2401 5.98363 29.0158 5.06229C26.7915 4.14095 24.4075 3.66675 22 3.66675Z" fill="#DAFFD6"/>
</svg>
