<svg width="44" height="44" viewBox="0 0 44 44" fill="none" xmlns="http://www.w3.org/2000/svg">
<path d="M22 3.66675C19.5924 3.66675 17.2084 4.14095 14.9841 5.06229C12.7598 5.98363 10.7387 7.33405 9.03633 9.03646C5.59817 12.4746 3.66663 17.1378 3.66663 22.0001C3.66663 30.1034 8.92829 36.9784 16.2066 39.4167C17.1233 39.5634 17.4166 38.9951 17.4166 38.5001V35.4017C12.3383 36.5017 11.2566 32.9451 11.2566 32.9451C10.4133 30.8184 9.22163 30.2501 9.22163 30.2501C7.55329 29.1134 9.34996 29.1501 9.34996 29.1501C11.1833 29.2784 12.155 31.0384 12.155 31.0384C13.75 33.8251 16.445 33.0001 17.49 32.5601C17.655 31.3684 18.1316 30.5617 18.645 30.1034C14.575 29.6451 10.3033 28.0684 10.3033 21.0834C10.3033 19.0484 11 17.4167 12.1916 16.1151C12.0083 15.6567 11.3666 13.7501 12.375 11.2751C12.375 11.2751 13.915 10.7801 17.4166 13.1451C18.865 12.7417 20.4416 12.5401 22 12.5401C23.5583 12.5401 25.135 12.7417 26.5833 13.1451C30.085 10.7801 31.625 11.2751 31.625 11.2751C32.6333 13.7501 31.9916 15.6567 31.8083 16.1151C33 17.4167 33.6966 19.0484 33.6966 21.0834C33.6966 28.0867 29.4066 29.6267 25.3183 30.0851C25.9783 30.6534 26.5833 31.7717 26.5833 33.4767V38.5001C26.5833 38.9951 26.8766 39.5817 27.8116 39.4167C35.09 36.9601 40.3333 30.1034 40.3333 22.0001C40.3333 19.5925 39.8591 17.2085 38.9378 14.9842C38.0164 12.7599 36.666 10.7389 34.9636 9.03646C33.2612 7.33405 31.2401 5.98363 29.0158 5.06229C26.7915 4.14095 24.4075 3.66675 22 3.66675Z" fill="#DAFFD6"/>
<mask id="path-2-outside-1_13_2" maskUnits="userSpaceOnUse" x="30" y="24" width="10" height="14" fill="black">
<rect fill="white" x="30" y="24" width="10" height="14"/>
<path d="M31.1293 37V36.0412L34.7301 32.0994C35.1527 31.6378 35.5007 31.2365 35.7741 30.8956C36.0476 30.5511 36.25 30.228 36.3814 29.9261C36.5163 29.6207 36.5838 29.3011 36.5838 28.9673C36.5838 28.5838 36.4915 28.2518 36.3068 27.9712C36.1257 27.6907 35.8771 27.4741 35.5611 27.3214C35.245 27.1687 34.8899 27.0923 34.4957 27.0923C34.0767 27.0923 33.7109 27.1793 33.3984 27.3533C33.0895 27.5238 32.8498 27.7635 32.6793 28.0724C32.5124 28.3814 32.429 28.7436 32.429 29.1591H31.1719C31.1719 28.5199 31.3192 27.9588 31.614 27.4759C31.9087 26.9929 32.31 26.6165 32.8178 26.3466C33.3292 26.0767 33.9027 25.9418 34.5384 25.9418C35.1776 25.9418 35.744 26.0767 36.2376 26.3466C36.7312 26.6165 37.1183 26.9805 37.3988 27.4386C37.6793 27.8967 37.8196 28.4062 37.8196 28.9673C37.8196 29.3686 37.7468 29.761 37.6012 30.1445C37.4592 30.5245 37.2106 30.9489 36.8555 31.4176C36.5039 31.8828 36.0156 32.451 35.3906 33.1222L32.9403 35.7429V35.8281H38.0114V37H31.1293Z"/>
</mask>
<path d="M31.1293 37V36.0412L34.7301 32.0994C35.1527 31.6378 35.5007 31.2365 35.7741 30.8956C36.0476 30.5511 36.25 30.228 36.3814 29.9261C36.5163 29.6207 36.5838 29.3011 36.5838 28.9673C36.5838 28.5838 36.4915 28.2518 36.3068 27.9712C36.1257 27.6907 35.8771 27.4741 35.5611 27.3214C35.245 27.1687 34.8899 27.0923 34.4957 27.0923C34.0767 27.0923 33.7109 27.1793 33.3984 27.3533C33.0895 27.5238 32.8498 27.7635 32.6793 28.0724C32.5124 28.3814 32.429 28.7436 32.429 29.1591H31.1719C31.1719 28.5199 31.3192 27.9588 31.614 27.4759C31.9087 26.9929 32.31 26.6165 32.8178 26.3466C33.3292 26.0767 33.9027 25.9418 34.5384 25.9418C35.1776 25.9418 35.744 26.0767 36.2376 26.3466C36.7312 26.6165 37.1183 26.9805 37.3988 27.4386C37.6793 27.8967 37.8196 28.4062 37.8196 28.9673C37.8196 29.3686 37.7468 29.761 37.6012 30.1445C37.4592 30.5245 37.2106 30.9489 36.8555 31.4176C36.5039 31.8828 36.0156 32.451 35.3906 33.1222L32.9403 35.7429V35.8281H38.0114V37H31.1293Z" fill="black"/>
<path d="M31.1293 37H30.1293V38H31.1293V37ZM31.1293 36.0412L30.3909 35.3667L30.1293 35.6532V36.0412H31.1293ZM34.7301 32.0994L33.9925 31.4242L33.9918 31.425L34.7301 32.0994ZM35.7741 30.8956L36.5542 31.5213L36.5574 31.5173L35.7741 30.8956ZM36.3814 29.9261L35.4667 29.522L35.4645 29.527L36.3814 29.9261ZM36.3068 27.9712L35.4666 28.5136L35.4715 28.521L36.3068 27.9712ZM35.5611 27.3214L35.9961 26.421L35.9961 26.421L35.5611 27.3214ZM33.3984 27.3533L33.8815 28.2289L33.8849 28.227L33.3984 27.3533ZM32.6793 28.0724L31.8037 27.5893L31.7995 27.5971L32.6793 28.0724ZM32.429 29.1591V30.1591H33.429V29.1591H32.429ZM31.1719 29.1591H30.1719V30.1591H31.1719V29.1591ZM31.614 27.4759L32.4676 27.9968L32.4676 27.9968L31.614 27.4759ZM32.8178 26.3466L32.3511 25.4622L32.3485 25.4636L32.8178 26.3466ZM36.2376 26.3466L36.7173 25.4692L36.7173 25.4692L36.2376 26.3466ZM37.3988 27.4386L36.546 27.9608L37.3988 27.4386ZM37.6012 30.1445L36.6663 29.7896L36.6645 29.7944L37.6012 30.1445ZM36.8555 31.4176L36.0584 30.8138L36.0577 30.8147L36.8555 31.4176ZM35.3906 33.1222L36.1211 33.8051L36.1225 33.8036L35.3906 33.1222ZM32.9403 35.7429L32.2099 35.0599L31.9403 35.3482V35.7429H32.9403ZM32.9403 35.8281H31.9403V36.8281H32.9403V35.8281ZM38.0114 35.8281H39.0114V34.8281H38.0114V35.8281ZM38.0114 37V38H39.0114V37H38.0114ZM32.1293 37V36.0412H30.1293V37H32.1293ZM31.8676 36.7157L35.4684 32.7739L33.9918 31.425L30.3909 35.3667L31.8676 36.7157ZM35.4677 32.7746C35.8993 32.3032 36.2628 31.8847 36.5542 31.5213L34.9941 30.2699C34.7387 30.5884 34.4061 30.9724 33.9925 31.4242L35.4677 32.7746ZM36.5574 31.5173C36.868 31.126 37.1228 30.7283 37.2983 30.3253L35.4645 29.527C35.3772 29.7276 35.2272 29.9762 34.9909 30.2739L36.5574 31.5173ZM37.2961 30.3303C37.4873 29.8976 37.5838 29.4404 37.5838 28.9673H35.5838C35.5838 29.1619 35.5454 29.3439 35.4667 29.522L37.2961 30.3303ZM37.5838 28.9673C37.5838 28.4169 37.4489 27.8875 37.1421 27.4214L35.4715 28.521C35.5341 28.616 35.5838 28.7507 35.5838 28.9673H37.5838ZM37.147 27.4289C36.8611 26.986 36.4687 26.6493 35.9961 26.421L35.126 28.2218C35.2856 28.2989 35.3904 28.3954 35.4667 28.5136L37.147 27.4289ZM35.9961 26.421C35.5285 26.1951 35.0219 26.0923 34.4957 26.0923V28.0923C34.7579 28.0923 34.9615 28.1423 35.126 28.2218L35.9961 26.421ZM34.4957 26.0923C33.9358 26.0923 33.3969 26.2096 32.912 26.4796L33.8849 28.227C34.025 28.1491 34.2176 28.0923 34.4957 28.0923V26.0923ZM32.9154 26.4778C32.4412 26.7394 32.0654 27.1152 31.8038 27.5894L33.5549 28.5555C33.6342 28.4118 33.7378 28.3082 33.8815 28.2289L32.9154 26.4778ZM31.7995 27.5971C31.5404 28.0767 31.429 28.6081 31.429 29.1591H33.429C33.429 28.8792 33.4844 28.6861 33.5592 28.5477L31.7995 27.5971ZM32.429 28.1591H31.1719V30.1591H32.429V28.1591ZM32.1719 29.1591C32.1719 28.6793 32.2806 28.3032 32.4676 27.9968L30.7604 26.9549C30.3579 27.6144 30.1719 28.3605 30.1719 29.1591H32.1719ZM32.4676 27.9968C32.6674 27.6694 32.9348 27.4169 33.2871 27.2296L32.3485 25.4636C31.6852 25.8161 31.1501 26.3164 30.7604 26.9549L32.4676 27.9968ZM33.2846 27.231C33.6382 27.0444 34.0489 26.9418 34.5384 26.9418V24.9418C33.7565 24.9418 33.0202 25.1091 32.3511 25.4622L33.2846 27.231ZM34.5384 26.9418C35.033 26.9418 35.4304 27.045 35.7578 27.224L36.7173 25.4692C36.0575 25.1084 35.3221 24.9418 34.5384 24.9418V26.9418ZM35.7578 27.224C36.1058 27.4142 36.3611 27.6588 36.546 27.9608L38.2516 26.9163C37.8755 26.3021 37.3566 25.8187 36.7173 25.4692L35.7578 27.224ZM36.546 27.9608C36.7259 28.2546 36.8196 28.582 36.8196 28.9673H38.8196C38.8196 28.2305 38.6328 27.5388 38.2516 26.9163L36.546 27.9608ZM36.8196 28.9673C36.8196 29.2446 36.7698 29.5169 36.6663 29.7896L38.5361 30.4994C38.7238 30.0051 38.8196 29.4926 38.8196 28.9673H36.8196ZM36.6645 29.7944C36.568 30.0527 36.3788 30.3909 36.0584 30.8138L37.6526 32.0215C38.0424 31.5069 38.3504 30.9963 38.5379 30.4947L36.6645 29.7944ZM36.0577 30.8147C35.7349 31.2418 35.272 31.7821 34.6588 32.4407L36.1225 33.8036C36.7592 33.1199 37.2729 32.5239 37.6533 32.0205L36.0577 30.8147ZM34.6602 32.4392L32.2099 35.0599L33.6708 36.4259L36.1211 33.8051L34.6602 32.4392ZM31.9403 35.7429V35.8281H33.9403V35.7429H31.9403ZM32.9403 36.8281H38.0114V34.8281H32.9403V36.8281ZM37.0114 35.8281V37H39.0114V35.8281H37.0114ZM38.0114 36H31.1293V38H38.0114V36Z" fill="#DAFFD6" mask="url(#path-2-outside-1_13_2)"/>
</svg>
