<svg width="43" height="43" viewBox="0 0 43 43" fill="none" xmlns="http://www.w3.org/2000/svg">
<path d="M21.5 39.4166C19.0216 39.4166 16.6924 38.946 14.5125 38.0047C12.3327 37.0635 10.4365 35.7873 8.824 34.176C7.2115 32.5647 5.93524 30.6685 4.99521 28.4874C4.05518 26.3064 3.58457 23.9772 3.58338 21.4999C3.58218 19.0226 4.05279 16.6935 4.99521 14.5124C5.93763 12.3314 7.21389 10.4352 8.824 8.82388C10.4341 7.21257 12.3303 5.93631 14.5125 4.99509C16.6948 4.05386 19.024 3.58325 21.5 3.58325C23.9761 3.58325 26.3053 4.05386 28.4875 4.99509C30.6698 5.93631 32.566 7.21257 34.1761 8.82388C35.7862 10.4352 37.0631 12.3314 38.0067 14.5124C38.9503 16.6935 39.4203 19.0226 39.4167 21.4999C39.4131 23.9772 38.9425 26.3064 38.0049 28.4874C37.0672 30.6685 35.791 32.5647 34.1761 34.176C32.5612 35.7873 30.665 37.0641 28.4875 38.0065C26.3101 38.949 23.9809 39.419 21.5 39.4166ZM21.5 35.8333C25.5014 35.8333 28.8907 34.4447 31.6678 31.6676C34.4448 28.8905 35.8334 25.5013 35.8334 21.4999C35.8334 21.2909 35.8262 21.0741 35.8119 20.8495C35.7975 20.625 35.7898 20.4387 35.7886 20.2905C35.6393 21.1565 35.2362 21.8732 34.5792 22.4405C33.9223 23.0079 33.1459 23.2916 32.25 23.2916H28.6667C27.6813 23.2916 26.838 22.941 26.1369 22.2399C25.4357 21.5387 25.0846 20.6949 25.0834 19.7083V17.9166H17.9167V14.3333C17.9167 13.3478 18.2679 12.5046 18.9702 11.8034C19.6725 11.1023 20.5158 10.7511 21.5 10.7499H23.2917C23.2917 10.0631 23.4786 9.45872 23.8525 8.93675C24.2264 8.41478 24.6814 7.98896 25.2178 7.65929C24.6205 7.50999 24.0161 7.39054 23.4046 7.30096C22.793 7.21138 22.1582 7.16659 21.5 7.16659C17.4987 7.16659 14.1094 8.55513 11.3323 11.3322C8.55525 14.1093 7.16671 17.4985 7.16671 21.4999H16.125C18.0959 21.4999 19.783 22.2017 21.1865 23.6051C22.59 25.0086 23.2917 26.6958 23.2917 28.6666V30.4583H17.9167V35.3853C18.5139 35.5346 19.104 35.6469 19.6869 35.7222C20.2698 35.7974 20.8742 35.8344 21.5 35.8333Z" fill="#DAFFD6"/>
</svg>
